<?xml version="1.0" standalone="no" ?>
<!DOCTYPE svg PUBLIC "-//W3C//DTD SVG 1.1//EN" "http://www.w3.org/Graphics/SVG/1.1/DTD/svg11.dtd">
<svg width="63px" height="75px" viewBox="0 0 63 75" style="background-color: #ffffff00" xmlns="http://www.w3.org/2000/svg" xmlns:xlink="http://www.w3.org/1999/xlink" version="1.1" >
<text x="0" y="0" stroke="none" fill="#000000" transform="matrix(0.0666667 0 0 0.0666667 15.8392 71.7538)" font-style="normal" font-weight="bold" font-size="200px" font-family="Arial" >
N</text>
<path stroke="none" fill="#000000" transform="matrix(0.0666667 0 0 0.0666667 -254.967 -375)" d="M 3890.89,6475.34 L 3878.89,6482.27 L 3878.89,6187.34 L 3890.89,6194.27 L 3890.89,6475.34 Z " />
<path stroke="none" fill="#000000" transform="matrix(0.0666667 0 0 0.0666667 -254.967 -375)" d="M 3942.73,6448.88 L 3930.73,6448.88 L 3930.73,6220.74 L 3942.73,6220.74 L 3942.73,6448.88 Z " />
<path stroke="none" fill="#000000" transform="matrix(0.0666667 0 0 0.0666667 -254.967 -375)" d="M 4037.09,6559.75 L 4031.09,6570.14 L 3878.89,6482.27 L 3890.89,6475.34 L 4037.09,6559.75 Z " />
<path stroke="none" fill="#000000" transform="matrix(0.0666667 0 0 0.0666667 -254.967 -375)" d="M 4377.72,6475.34 L 4383.72,6478.81 L 4383.72,6485.74 L 4236.44,6570.77 L 4230.44,6560.37 L 4377.72,6475.34 Z " />
<path stroke="none" fill="#000000" transform="matrix(0.0666667 0 0 0.0666667 -254.967 -375)" d="M 4328.88,6443.68 L 4334.88,6454.07 L 4210.52,6525.87 L 4204.52,6515.48 L 4328.88,6443.68 Z " />
<path stroke="none" fill="#000000" transform="matrix(0.0666667 0 0 0.0666667 -254.967 -375)" d="M 4377.72,6194.27 L 4389.72,6187.34 L 4389.72,6475.34 L 4383.72,6478.81 L 4377.72,6475.34 L 4377.72,6194.27 Z " />
<path stroke="none" fill="#000000" transform="matrix(0.0666667 0 0 0.0666667 -254.967 -375)" d="M 4134.3,6053.74 L 4134.3,6046.81 L 4140.3,6043.34 L 4389.72,6187.34 L 4377.72,6194.27 L 4134.3,6053.74 Z " />
<path stroke="none" fill="#000000" transform="matrix(0.0666667 0 0 0.0666667 -254.967 -375)" d="M 4131.3,6111.86 L 4137.3,6101.47 L 4334.88,6215.54 L 4328.88,6225.93 L 4131.3,6111.86 Z " />
<path stroke="none" fill="#000000" transform="matrix(0.0666667 0 0 0.0666667 -254.967 -375)" d="M 3890.89,6194.27 L 3878.89,6187.34 L 4128.3,6043.34 L 4134.3,6046.81 L 4134.3,6053.74 L 3890.89,6194.27 Z " />
<path stroke="none" fill="#000000" transform="matrix(0.0666667 0 0 0.0666667 -254.967 -375)" d="M 4636.13,6617.61 L 4630.13,6628 L 4383.72,6485.74 L 4383.72,6478.81 L 4389.72,6475.34 L 4636.13,6617.61 Z " />
<text x="0" y="0" stroke="none" fill="#000000" transform="matrix(0.0666667 0 0 0.0666667 15.8392 14.1538)" font-style="normal" font-weight="bold" font-size="200px" font-family="Arial" >
NHBoc</text>
<path stroke="none" fill="#000000" transform="matrix(0.0666667 0 0 0.0666667 -254.967 -375)" d="M 4128.3,5864.47 L 4140.3,5864.47 L 4140.3,6043.34 L 4134.3,6046.81 L 4128.3,6043.34 L 4128.3,5864.47 Z " />
</svg>
