<?xml version="1.0" standalone="no" ?>
<!DOCTYPE svg PUBLIC "-//W3C//DTD SVG 1.1//EN" "http://www.w3.org/Graphics/SVG/1.1/DTD/svg11.dtd">
<svg width="298px" height="50px" viewBox="0 0 298 50" style="background-color: #ffffff00" xmlns="http://www.w3.org/2000/svg" xmlns:xlink="http://www.w3.org/1999/xlink" version="1.1" >
<text x="0" y="0" stroke="none" fill="#000000" transform="matrix(0.0666667 0 0 0.0666667 36.5317 14.5708)" font-style="normal" font-weight="bold" font-size="200px" font-family="Arial" >
H</text>
<text x="0" y="0" stroke="none" fill="#000000" transform="matrix(0.0666667 0 0 0.0666667 36.5317 25.693)" font-style="normal" font-weight="bold" font-size="200px" font-family="Arial" >
N</text>
<path stroke="none" fill="#000000" transform="matrix(0.0666667 0 0 0.0666667 -264.967 -506)" d="M 4844.97,8034.47 L 4844.97,8048.32 L 4693.21,7960.7 L 4699.21,7950.31 L 4844.97,8034.47 Z " />
<path stroke="none" fill="#000000" transform="matrix(0.0666667 0 0 0.0666667 -264.967 -506)" d="M 5095.26,7889.97 L 5095.26,7903.82 L 4844.97,8048.32 L 4844.97,8034.47 L 5095.26,7889.97 Z " />
<path stroke="none" fill="#000000" transform="matrix(0.0666667 0 0 0.0666667 -264.967 -506)" d="M 5345.54,8034.47 L 5345.54,8048.32 L 5095.26,7903.82 L 5095.26,7889.97 L 5345.54,8034.47 Z " />
<text x="0" y="0" stroke="none" fill="#000000" transform="matrix(0.0666667 0 0 0.0666667 103.273 14.5708)" font-style="normal" font-weight="bold" font-size="200px" font-family="Arial" >
H</text>
<text x="0" y="0" stroke="none" fill="#000000" transform="matrix(0.0666667 0 0 0.0666667 103.273 25.693)" font-style="normal" font-weight="bold" font-size="200px" font-family="Arial" >
N</text>
<path stroke="none" fill="#000000" transform="matrix(0.0666667 0 0 0.0666667 -264.967 -506)" d="M 5490.22,7950.93 L 5496.22,7961.33 L 5345.54,8048.32 L 5345.54,8034.47 L 5490.22,7950.93 Z " />
<path stroke="none" fill="#000000" transform="matrix(0.0666667 0 0 0.0666667 -264.967 -506)" d="M 5846.1,8034.47 L 5846.1,8048.32 L 5694.34,7960.7 L 5700.34,7950.31 L 5846.1,8034.47 Z " />
<path stroke="none" fill="#000000" transform="matrix(0.0666667 0 0 0.0666667 -264.967 -506)" d="M 6096.38,7889.97 L 6096.38,7903.82 L 5846.1,8048.32 L 5846.1,8034.47 L 6096.38,7889.97 Z " />
<path stroke="none" fill="#000000" transform="matrix(0.0666667 0 0 0.0666667 -264.967 -506)" d="M 6346.66,8034.47 L 6346.66,8048.32 L 6096.38,7903.82 L 6096.38,7889.97 L 6346.66,8034.47 Z " />
<path stroke="none" fill="#000000" transform="matrix(0.0666667 0 0 0.0666667 -264.967 -506)" d="M 6596.94,7889.97 L 6596.94,7903.82 L 6346.66,8048.32 L 6346.66,8034.47 L 6596.94,7889.97 Z " />
<text x="0" y="0" stroke="none" fill="#000000" transform="matrix(0.0666667 0 0 0.0666667 186.701 35.3264)" font-style="normal" font-weight="bold" font-size="200px" font-family="Arial" >
N</text>
<text x="0" y="0" stroke="none" fill="#000000" transform="matrix(0.0666667 0 0 0.0666667 186.701 46.4486)" font-style="normal" font-weight="bold" font-size="200px" font-family="Arial" >
H</text>
<path stroke="none" fill="#000000" transform="matrix(0.0666667 0 0 0.0666667 -264.967 -506)" d="M 6750.01,7978.34 L 6744.01,7988.73 L 6596.94,7903.82 L 6596.94,7889.97 L 6750.01,7978.34 Z " />
<path stroke="none" fill="#000000" transform="matrix(0.0666667 0 0 0.0666667 -264.967 -506)" d="M 7097.51,7889.97 L 7097.51,7903.82 L 6949.36,7989.35 L 6943.36,7978.96 L 7097.51,7889.97 Z " />
<path stroke="none" fill="#000000" transform="matrix(0.0666667 0 0 0.0666667 -264.967 -506)" d="M 7347.79,8034.47 L 7347.79,8048.32 L 7097.51,7903.82 L 7097.51,7889.97 L 7347.79,8034.47 Z " />
<path stroke="none" fill="#000000" transform="matrix(0.0666667 0 0 0.0666667 -264.967 -506)" d="M 7598.07,7889.97 L 7598.07,7903.82 L 7347.79,8048.32 L 7347.79,8034.47 L 7598.07,7889.97 Z " />
<text x="0" y="0" stroke="none" fill="#000000" transform="matrix(0.0666667 0 0 0.0666667 253.442 35.3264)" font-style="normal" font-weight="bold" font-size="200px" font-family="Arial" >
N</text>
<text x="0" y="0" stroke="none" fill="#000000" transform="matrix(0.0666667 0 0 0.0666667 253.442 46.4486)" font-style="normal" font-weight="bold" font-size="200px" font-family="Arial" >
H</text>
<path stroke="none" fill="#000000" transform="matrix(0.0666667 0 0 0.0666667 -264.967 -506)" d="M 7751.14,7978.34 L 7745.14,7988.73 L 7598.07,7903.82 L 7598.07,7889.97 L 7751.14,7978.34 Z " />
<text x="0" y="0" stroke="none" fill="#000000" transform="matrix(0.0666667 0 0 0.0666667 270.128 25.693)" font-style="normal" font-weight="bold" font-size="200px" font-family="Arial" >
Cbz</text>
<path stroke="none" fill="#000000" transform="matrix(0.0666667 0 0 0.0666667 -264.967 -506)" d="M 8008.38,7942.08 L 8014.38,7952.47 L 7950.49,7989.35 L 7944.49,7978.96 L 8008.38,7942.08 Z " />
<text x="0" y="0" stroke="none" fill="#000000" transform="matrix(0.0666667 0 0 0.0666667 3.55397 35.3264)" font-style="normal" font-weight="bold" font-size="200px" font-family="Arial" >
Cbz</text>
<path stroke="none" fill="#000000" transform="matrix(0.0666667 0 0 0.0666667 -264.967 -506)" d="M 4419.34,8005.07 L 4413.34,7994.67 L 4489.1,7950.93 L 4495.1,7961.33 L 4419.34,8005.07 Z " />
</svg>
